<svg xmlns="http://www.w3.org/2000/svg" version="1.1" xmlns:xlink="http://www.w3.org/1999/xlink" id="Layer_1" viewBox="0 0 511.987 511.987" xml:space="preserve" width="511.987" height="511.987"><rect x="53.343" y="21.327" style="fill:#5D9CEC;" width="405.3" height="490.66"></rect><rect x="74.684" y="42.662" style="fill:#F5F7FA;" width="362.65" height="447.98"></rect><g>
	<path style="fill:#E6E9ED;" d="M127.997,63.99c-5.875,0-10.655-4.773-10.655-10.664V10.663c0-5.891,4.78-10.663,10.655-10.663
		c5.906,0,10.688,4.772,10.688,10.663v42.663C138.684,59.217,133.904,63.99,127.997,63.99z"></path>
	<path style="fill:#E6E9ED;" d="M191.995,63.99c-5.875,0-10.655-4.773-10.655-10.664V10.663C181.34,4.772,186.12,0,191.995,0
		c5.906,0,10.688,4.772,10.688,10.663v42.663C202.682,59.217,197.902,63.99,191.995,63.99z"></path>
	<path style="fill:#E6E9ED;" d="M255.993,63.99c-5.874,0-10.655-4.773-10.655-10.664V10.663C245.339,4.772,250.12,0,255.993,0
		c5.906,0,10.672,4.772,10.672,10.663v42.663C266.665,59.217,261.9,63.99,255.993,63.99z"></path>
	<path style="fill:#E6E9ED;" d="M319.992,63.99c-5.875,0-10.656-4.773-10.656-10.664V10.663C309.336,4.772,314.117,0,319.992,0
		c5.905,0,10.655,4.772,10.655,10.663v42.663C330.647,59.217,325.897,63.99,319.992,63.99z"></path>
	<path style="fill:#E6E9ED;" d="M383.991,63.99c-5.875,0-10.656-4.773-10.656-10.664V10.663C373.335,4.772,378.116,0,383.991,0
		c5.905,0,10.655,4.772,10.655,10.663v42.663C394.646,59.217,389.896,63.99,383.991,63.99z"></path>
</g><g>
	<path style="fill:#A0D468;" d="M188.339,144.19c0,0,0,0,0,0.008L150.638,181.9l-15.078-15.069c0-0.008,0-0.008,0-0.016
		c-4.172-4.164-10.938-4.164-15.094,0c-4.155,4.163-4.155,10.921,0,15.085l0,0l0,0l22.625,22.624l0,0
		c4.172,4.164,10.921,4.164,15.093,0l0,0l45.249-45.248l0,0c4.156-4.172,4.156-10.922,0-15.086
		C199.262,140.026,192.512,140.026,188.339,144.19z"></path>
	<path style="fill:#A0D468;" d="M188.339,250.851c0,0,0,0.008,0,0.016l-37.701,37.687l-15.078-15.062c0,0,0,0,0-0.016
		c-4.172-4.163-10.938-4.163-15.094,0c-4.155,4.172-4.155,10.922,0,15.078l0,0l0,0l22.625,22.624l0,0
		c4.172,4.172,10.921,4.172,15.093,0l0,0l45.249-45.24l0,0l0,0c4.156-4.164,4.156-10.922,0-15.086
		C199.262,246.687,192.512,246.687,188.339,250.851z"></path>
	<path style="fill:#A0D468;" d="M188.339,357.52L188.339,357.52l-37.701,37.702l-15.078-15.078l0,0
		c-4.172-4.172-10.938-4.172-15.094,0c-4.155,4.156-4.155,10.906,0,15.078l0,0l0,0l22.625,22.624l0,0
		c4.172,4.172,10.921,4.172,15.093,0l0,0l45.249-45.249l0,0l0,0c4.156-4.172,4.156-10.922,0-15.077
		C199.262,353.348,192.512,353.348,188.339,357.52z"></path>
</g><g>
	<path style="fill:#434A54;" d="M245.339,186.314h149.308c5.906,0,10.688-4.773,10.688-10.664c0-5.89-4.781-10.663-10.688-10.663
		H245.339c-5.891,0-10.672,4.773-10.672,10.663C234.667,181.541,239.447,186.314,245.339,186.314z"></path>
	<path style="fill:#434A54;" d="M394.646,271.648H245.339c-5.891,0-10.672,4.78-10.672,10.655c0,5.906,4.781,10.672,10.672,10.672
		h149.308c5.906,0,10.688-4.766,10.688-10.672C405.333,276.429,400.552,271.648,394.646,271.648z"></path>
	<path style="fill:#434A54;" d="M394.646,378.301H245.339c-5.891,0-10.672,4.781-10.672,10.672s4.781,10.672,10.672,10.672h149.308
		c5.906,0,10.688-4.781,10.688-10.672S400.552,378.301,394.646,378.301z"></path>
</g></svg>